<!--version="1.0" encoding="UTF-8"--><!DOCTYPE html PUBLIC "-//W3C//DTD SVG 1.1//EN" "http://www.w3.org/Graphics/SVG/1.1/DTD/svg11.dtd"><!-- Creator: CorelDRAW X8 --><svg xmlns="http://www.w3.org/2000/svg" xml:space="preserve" width="150mm" height="40mm" version="1.1" style="fill-rule: evenodd; clip-rule: evenodd;" viewBox="0 0 150000 40000" preserveAspectRatio="xMidYMid meet" zoomAndPan="magnify" contentScriptType="application/ecmascript" contentStyleType="text/css"><defs><style type="text/css" xml:space="preserve">.fil0 { fill: black; fill-rule: nonzero; }</style></defs><g id="Слой_x0020_1"><g id="_636912752"><path class="fil0" d="m0 29967 530-1855h113090l1590-5961c335-1231 1335-1659 2419-1659 495 0 1376 40 1746 870l2120 4818c49 94 95 227 202 227 147 0 182-147 199-227l1495-5581h2463l-2084 7802c-100 348-426 1673-2340 1673-709 0-1427-80-1796-923l-2109-4778c-35-94-95-227-189-227-40 0-187 0-255 267l-1493 5554H0zM140163.02 3737c120-146 311-218 498-210 2206 2 4412-1 6618 2 638 24 1264 274 1749 689 483 428 832 1015 929 1657 113 719-15 1449-179 2150-163 637-405 1260-778 1804-579 828-1516 1384-2511 1536 711 1400 1449 2785 2160 4185-1087 1-2174-3-3261 0-234 10-470-125-571-337-591-1155-1181-2311-1771-3467-41-100-102-192-133-295-12-312 83-614 156-914 108-392 205-787 318-1178 42-130 75-267 152-381 104-151 275-265 462-265 389-5 778 0 1168-2 349-12 721-124 950-404 225-278 332-630 395-977 33-237 94-500-31-722-110-215-358-320-590-324-789 1-1577 1-2366 1-209 0-430 78-556 253-87 103-107 239-142 364-732 2680-1439 5368-2154 8053-38 148-80 304-193 414-113 106-264 174-419 181-1060-2-2120 3-3181-4 267-1024 554-2042 829-3064 266-948 510-1903 768-2853 476-1778 976-3549 1450-5327 57-195 94-408 234-565zm-85593-177c341-60 653-5 990 74 442 126 860 347 1195 664 410 393 723 901 831 1463 103 513 74 1043-23 1553-55 311-149 612-220 920-170 693-463 1370-936 1912-509 571-1198 972-1938 1158-458 105-929 135-1397 153-799 3-1597 1-2396 2-63 0-126 6-188-7 56-268 144-527 211-791 134-482 259-966 393-1448 72-253 289-480 562-495 399-5 798-3 1197-4 282-1 562-90 788-260 183-153 302-367 389-586 110-285 169-589 187-895 20-218-84-445-268-566-138-88-305-119-466-116-775 5-1552 7-2328 7-270-7-542 171-611 439-762 2779-1492 5567-2237 8351-60 272-320 460-591 472-1055 3-2111-3-3165 1-16-39 3-80 11-118 622-2251 1224-4508 1838-6761 2006-2665 4882-4500 8172-5122zm19275 177c120-146 311-218 498-210 2205 2 4412-1 6618 2 638 24 1264 274 1749 689 482 428 832 1015 929 1657 112 719-15 1449-180 2150-163 637-404 1260-777 1804-579 828-1516 1384-2511 1536 711 1400 1449 2785 2160 4185-1087 1-2174-3-3261 0-234 10-470-125-571-337-591-1155-1181-2311-1771-3467-41-100-102-192-133-295-12-312 83-614 156-914 107-392 205-787 318-1178 42-130 74-267 152-381 104-151 274-265 462-265 389-5 778 0 1167-2 350-12 722-124 951-404 225-278 332-630 395-977 33-237 94-500-31-722-110-215-358-320-591-324-788 1-1576 1-2365 1-209 0-431 78-557 253-87 103-106 239-141 364-732 2680-1440 5368-2154 8053-38 148-80 304-193 414-113 106-264 174-419 181-1060-2-2121 3-3181-4 267-1024 554-2042 829-3064 265-948 509-1903 768-2853 476-1778 976-3549 1450-5327 56-195 94-408 234-565zm-13612-136c182-94 393-58 590-65 641-8 1282 8 1923-9 809-1 1618 0 2427 1 568 16 1138-15 1702 66 702 88 1398 281 2016 632 470 265 886 627 1207 1061 347 468 566 1019 688 1586 189 793 198 1622 68 2425-192 1238-713 2423-1492 3404-1080 1385-2664 2370-4391 2702-474 97-957 130-1439 153-2242-1-4484 2-6726-3 363-1360 731-2719 1094-4078 645-2472 1316-4936 1975-7405 43-198 169-384 358-470zm2717 2854c-201 175-207 459-280 697-352 1369-731 2731-1090 4097-77 317-178 630-240 949 721-3 1442 10 2162-2 599-7 1199-139 1731-416 564-285 1051-711 1426-1217 426-543 651-1219 728-1899 55-489 40-1009-189-1456-220-448-667-754-1146-864-258-58-524-38-786-39-620 1-1239 0-1858 1-166-15-339 28-458 149zm25423 9329c-858 0-1599-92-2224-278-627-183-1113-495-1461-932-349-439-547-1018-595-1741-49-723 76-1621 371-2698l347-1246c288-1065 655-1955 1097-2676 440-720 957-1298 1544-1735s1245-748 1970-935c726-183 1518-275 2376-275 303 0 600 8 890 28 287 19 565 47 825 86 263 36 507 83 734 133 227 53 430 115 603 184 56 28 88 56 100 81 10 28 6 72-16 130l-984 2234c-48 103-124 142-228 114-417-92-837-156-1259-186-424-34-853-50-1286-50-428 0-819 47-1170 139-354 91-670 247-947 464-280 217-526 503-734 860-211 356-388 798-532 1323l-369 1419c-150 531-217 976-203 1332 12 356 98 643 254 863 158 219 385 378 686 470 299 91 665 139 1092 139 456 0 920-14 1384-42s926-67 1387-122c114-17 165 30 151 139l-285 2264c-14 108-78 178-187 203-206 50-438 94-695 130-257 39-528 73-810 98-286 28-585 50-895 61-310 14-622 22-931 22zm5391-253c-112 0-151-55-122-164l3182-11693c32-108 103-161 216-161h7773c116 0 155 53 123 161l-646 2348c-32 108-103 164-216 164h-4958l-541 1972h3748c113 0 155 52 123 161l-646 2339c-32 109-106 164-218 164h-3737l-555 2036h4964c116 0 154 56 123 164l-647 2345c-32 109-103 164-215 164h-7751zm10153 0c-112 0-151-55-122-164l3183-11693c32-108 102-161 215-161h2902c113 0 184 50 216 153l1908 6105c32 103 56 200 74 292 19 92 32 175 47 245 14 69 24 128 29 172 5 42 9 64 15 64l1885-6870c32-108 103-161 215-161h2634c113 0 152 53 123 161l-3209 11693c-32 109-103 164-215 164h-2903c-112 0-183-53-215-156l-1894-6069c-75-244-117-442-125-592-8-148-16-223-28-223l-1894 6876c-32 109-106 164-219 164h-2622zm15077 0c-112 0-151-55-122-164l2514-9181h-3156c-113 0-155-56-123-164l638-2348c32-108 106-161 218-161h9264c113 0 152 53 120 161l-638 2348c-32 108-103 164-216 164h-3147l-2511 9181c-32 109-103 164-219 164h-2622zm7884 0c-113 0-152-55-123-164l3183-11693c32-108 102-161 215-161h7774c115 0 154 53 122 161l-646 2348c-32 108-103 164-216 164h-4958l-541 1972h3749c112 0 154 52 122 161l-646 2339c-32 109-105 164-218 164h-3737l-554 2036h4963c116 0 155 56 123 164l-646 2345c-32 109-103 164-216 164h-7750zm-82196 8661 289-1073c13-47 56-80 103-80h1603c484 0 784-89 983-281 203-196 315-508 419-948 21-88 38-178 51-264 14-90 23-176 27-249 16-278-32-505-163-658s-350-240-678-240h-2151c-176 0-325 49-441 141-117 92-203 230-251 407l-875 3245h1084zm557-2071 163-598c28-109 77-191 149-248s161-84 271-84h656c159 0 283 17 372 68 105 61 155 157 147 306-1 28-8 75-17 123-8 39-17 78-28 109-64 197-149 310-272 376-117 63-257 75-444 75h-907c-55 0-98-45-95-101 1-9 2-18 5-26zm3769-752-155 575h1451c114 0 206 26 270 78 69 57 103 139 98 245-2 28-4 55-13 94l-15 57c-12 48-56 81-103 81h-1381c-289 0-473 41-598 143-125 103-202 277-272 540-14 57-27 126-38 193-10 66-18 131-21 181-11 204 29 369 123 479 87 100 226 157 420 157h1758c202 0 353-49 463-139 111-92 185-230 234-409l367-1369 2-5c8-29 14-60 19-92 6-38 10-80 12-116 12-214-44-392-172-512-122-115-313-181-579-181h-1870zm1446 1763-62 214-2 4c-30 104-69 177-132 227-65 53-145 74-255 74h-577c-80 0-141-29-183-75-46-51-66-120-62-191 1-16 3-36 7-55 4-23 8-44 13-61 1-3 1-6 2-9 25-86 73-147 134-188 70-48 153-67 234-67h793c56 0 98 45 95 101 0 9-2 18-5 26zm1428 1060h913l760-2823h-913l-760 2823zm1807-3327 125-466h-912l-126 466h913zm-90 3327h913l518-1916h-1c28-109 68-184 134-236s147-73 256-73h137c202 0 349 26 449 94 113 77 161 195 151 371-2 37-8 83-16 133-8 48-19 100-31 148v3l-399 1476h912l484-1803c10-37 19-82 26-128 7-49 13-99 15-142 13-235-58-420-197-546-145-132-366-204-641-204h-1404c-178 0-325 36-438 121s-199 223-253 427l-615 2275zm5785 0 161-598h-52c-215 0-368-44-470-121-123-93-171-227-162-384 5-85 27-255 57-360l1-2 180-680c12-48 56-80 102-80h781l161-598h-737c-55 0-98-45-95-101 1-9 2-18 5-26l226-843h-913l-238 890c-13 48-57 80-103 80h-347l-161 598h303c56 0 98 45 95 100 0 10-2 19-5 28l-317 1191-1 4c-8 26-14 58-19 90-6 40-10 85-12 125-13 219 61 383 188 494 148 130 370 193 614 193h758zm718 0h913l1020-3793h-913l-1020 3793zm4621 0 155-575h-1343c-183 0-319-19-412-66-115-59-167-152-159-291 2-42 12-90 28-144 14-46 57-77 102-77h1649c170 0 287-46 370-126 88-85 146-213 194-368 21-71 39-148 52-226 15-87 24-175 28-252 17-302-75-482-272-586-216-113-557-146-1012-146-638 0-1046 26-1327 203-278 175-450 510-625 1133-41 149-69 271-87 382-19 108-28 206-34 309-17 295 45 503 189 633 148 135 390 197 731 197h1773zm-1542-1787c59-215 145-338 269-411 122-71 267-84 455-84 86 0 209 4 313 34 133 38 236 114 228 260-1 14-5 75-15 110-16 49-33 101-89 148-50 42-124 71-244 71h-827c-56 0-98-45-95-101 0-9 2-18 5-27zm2305 1787h1982c264 0 460-38 602-137 141-99 238-265 307-524h-1c11-41 20-80 26-117 7-36 11-70 13-103 11-195-40-328-140-430-108-110-274-191-481-275l-642-257-3-2c-38-15-74-27-104-38-138-48-207-72-199-208 5-94 83-134 172-149 53-8 106-8 131-8h1562l155-575h-1942c-263 0-460 44-604 150-143 106-242 279-311 539-11 41-20 80-26 117-7 36-11 70-13 103-10 172 30 293 112 385 89 100 230 174 415 246l542 211 4 2c18 6 36 13 56 19 152 53 345 119 336 273-3 64-37 106-82 134s-99 35-136 35h-1568l-163 609zm3315 0h1981c265 0 461-38 603-137 140-99 237-265 306-524 10-41 19-80 26-117 6-36 11-70 13-103 11-195-41-328-141-430-107-110-274-191-480-275l-642-257-4-2c-38-15-73-27-104-38-138-48-207-72-199-208 5-94 84-134 172-149 53-8 106-8 131-8h1562l155-575h-1941c-263 0-460 44-604 150-143 106-243 279-312 539-10 41-19 80-26 117-6 36-11 70-13 103-9 172 30 293 113 385 88 100 229 174 414 246h1l541 211 4 2c18 6 37 13 56 19 152 53 345 119 337 273-4 64-37 106-83 134-45 28-99 35-136 35h-1567l-163 609zm8234 0c688 0 1149-103 1467-368 318-266 506-703 648-1373 30-140 53-276 71-408 16-128 27-251 34-369 23-413-52-733-252-947s-531-328-1019-328h-1552c-203 0-352 48-461 139s-182 230-231 409l-735 2739c-1 2-1 4-2 6-5 20-9 40-13 61-3 21-6 43-7 66-6 112 24 208 90 274 63 62 161 99 296 99h1666zm-376-2643c34-122 85-210 162-270 79-61 176-88 302-88h57c316 0 550 29 707 123 174 103 251 271 235 542-3 60-14 141-31 230-17 96-40 198-62 286-1 2-1 5-2 7-122 451-259 705-479 851-218 145-500 170-919 170h-57c-105 0-182-19-236-62-63-49-89-119-83-215 2-41 4-82 22-135l382-1432c0-2 1-4 2-7zm5703 2643 155-575h-1342c-183 0-319-19-413-66-115-59-166-152-159-291 3-42 12-90 29-144 14-46 57-77 102-77h1649c169 0 286-46 369-126 88-85 147-213 194-368 22-71 39-148 52-226 15-87 24-175 29-252 17-302-76-482-273-586-215-113-556-146-1012-146-638 0-1046 26-1327 203-277 175-450 510-624 1133-42 149-69 271-88 382-18 108-28 206-34 309-16 295 45 503 189 633 149 135 390 197 731 197h1773zm-1541-1787c58-215 144-338 269-411 121-71 266-84 454-84 86 0 209 4 314 34 133 38 235 114 227 260-1 14-4 75-15 110-15 49-33 101-89 148-50 42-124 71-243 71h-828c-55 0-98-45-95-101 1-9 3-18 6-27zm2379 1787h913l518-1916c28-109 68-184 133-236 66-52 148-73 257-73h137c202 0 349 26 449 94 112 77 160 195 150 371-2 37-7 83-16 133-8 48-18 100-30 148v3l-399 1476h912l484-1803c10-37 19-82 26-128 7-49 13-99 15-142 13-235-59-420-197-546-146-132-366-204-642-204h-1403c-178 0-325 36-438 121-114 85-199 223-254 427l-615 2275zm5785 0 162-598h-53c-215 0-367-44-470-121-122-93-170-227-161-384 5-85 26-255 57-360l1-2 179-680c13-48 57-80 103-80h781l161-598h-737c-56 0-98-45-95-101 0-9 2-18 5-26l226-843h-913l-239 890c-12 48-56 80-102 80h-347l-162 598h304c55 0 98 45 95 100-1 10-3 19-6 28l-316 1191-1 4c-8 26-14 58-19 90-6 40-10 85-13 125-12 219 62 383 189 494 148 130 370 193 614 193h757zm3338 0h1084l720-2669h-1c28-109 77-191 149-248s161-84 271-84h736c155 0 267 18 345 67 93 59 132 149 124 284-2 31-6 66-12 104-6 31-14 65-25 100-53 194-123 325-234 410-111 87-253 120-447 120h-194c-154 0-288 23-390 83-96 55-167 146-205 287-8 31-18 63-24 93-6 31-11 58-13 87-7 131 27 191 97 310l38 65c1 2 2 3 2 5l574 986h1191l-660-1035c-16-25-19-54-10-81h-1l7-23c14-46 57-76 102-76h114c416 0 669-166 834-395 172-239 255-554 323-830 21-84 37-167 48-246 11-80 18-157 22-232 16-280-39-507-186-657-136-139-355-218-674-218h-2139c-176 0-325 49-441 141-117 92-203 230-251 407l-874 3245zm7496 0 155-575h-1342c-184 0-319-19-413-66-115-59-166-152-159-291 3-42 12-90 29-144 14-46 56-77 101-77h1649c170 0 287-46 370-126 88-85 146-213 194-368 22-71 39-148 52-226 15-87 24-175 29-252 17-302-76-482-273-586-216-113-556-146-1012-146-638 0-1046 26-1327 203-277 175-450 510-624 1133-42 149-69 271-88 382-18 108-28 206-34 309-16 295 45 503 189 633 149 135 390 197 731 197h1773zm-1541-1787c58-215 144-338 269-411 121-71 266-84 454-84 86 0 209 4 314 34 133 38 235 114 227 260-1 14-4 75-15 110-15 49-33 101-89 148-50 42-124 71-244 71h-827c-55 0-98-45-95-101 1-9 3-18 6-27zm3680-1036c-203 0-352 48-460 139-110 91-183 230-231 409l-870 3245h908l238-890c13-48 56-80 103-80h844c514 0 851-110 1083-326 235-217 372-550 478-990 22-89 39-174 52-257 13-80 21-159 25-238 18-314-48-578-215-755-152-163-392-257-734-257h-1221zm110 964c35-137 77-226 153-286s170-80 308-80h206c175 0 289 53 358 142 68 87 88 202 81 329-3 53-12 128-24 206-12 74-26 151-41 212l-1 2c-42 157-110 335-222 476-121 152-288 260-522 260h-514c-55 0-98-45-95-100 1-10 3-19 6-28l307-1133zm3211-964-154 575h1450c115 0 206 26 270 78 70 57 104 139 98 245-2 28-3 55-13 94l-15 57c-12 48-56 81-103 81h-1381c-288 0-473 41-597 143-125 103-202 277-272 540-14 57-28 126-38 193-11 66-18 131-21 181-12 204 28 369 123 479 87 100 225 157 420 157h1757c203 0 354-49 463-139 111-92 186-230 234-409l368-1369 1-5c8-29 14-60 19-92 6-38 10-80 12-116 12-214-43-392-171-512-123-115-314-181-580-181h-1870zm1446 1763-62 214-1 4c-31 104-70 177-133 227-65 53-145 74-255 74h-576c-81 0-141-29-183-75-47-51-67-120-63-191 1-16 4-36 7-55 4-23 9-44 13-61l3-9c24-86 72-147 133-188 70-48 154-67 234-67h794c55 0 98 45 95 101-1 9-3 18-6 26zm1428 1060h913l760-2823h-913l-760 2823zm1807-3327 126-466h-913l-126 466h913zm-90 3327h913l367-1358 1-4c74-274 180-489 339-638 164-155 378-237 663-237h336l156-586h-613c-495 0-865 53-1137 226-268 170-452 464-582 949v1l-443 1647zM53385 3112c-3126-212-6847 507-10258 3422l2628 1293c1919-2441 4604-4122 7651-4714l-21-1zm93941 26857-2552-3957c-173-267-218-428-209-588 19-348 204-561 486-815l4281-3998h-3582l-3447 3396c-481 481-607 1069-634 1564-15 281 25 535 159 775l1995 3623h3503zm-10334 0h3021l2501-9358h-3021l-2501 9358zm-11139-2h6477c1874 0 2515-709 2937-2315 84-321 162-763 177-1044 59-1084-459-1660-1603-2021l-2671-843c-237-80-690-120-671-455 19-361 514-361 742-361h4764l622-2329h-6183c-1740 0-2435 723-2823 2195-83 308-148 749-164 1044-53 990 296 1699 1242 2021l3077 1017c276 93 512 173 500 401-17 308-394 361-622 361h-5193l-608 2329z"/><path class="fil0" d="M43470 36550c97-453 216-827 358-1123s316-531 523-704 438-295 692-365c253-69 560-104 919-104 288 0 531 22 730 66 198 45 370 119 513 222 144 104 247 245 308 422 61 178 91 396 89 657-2 260-42 569-118 929-194 909-488 1524-881 1845-203 169-431 291-685 365s-565 111-932 111c-368 0-662-36-882-108s-400-194-539-368c-135-169-208-407-219-713-11-307 31-684 124-1132zm2410-1909c-313 0-560 24-742 73-182 48-351 142-508 282-279 249-501 771-666 1566-67 313-107 577-120 793s0 398 38 546 111 263 219 345c108 83 238 141 390 175 152 33 344 50 577 50 304 0 554-27 748-82 195-55 368-152 520-292 279-266 501-778 666-1535 127-634 155-1093 83-1376-68-216-193-359-374-431-182-72-459-110-831-114zm4554 3672 50 380c-279 119-594 178-945 178-524 0-888-127-1091-381-198-253-230-695-95-1325 131-626 349-1061 654-1307 308-245 725-368 1249-368 334 0 628 53 882 159l-216 387c-195-102-444-152-749-152-393 0-693 86-900 260-207 173-364 518-469 1034-106 498-96 841 31 1027 131 182 393 273 787 273 270 0 541-55 812-165zm2555 469 330-1560h-1731l-330 1560h-412l678-3203h413l-273 1281h1731l273-1281h412l-678 3203h-413zm1840-1617c135-634 340-1070 615-1307 275-245 672-368 1192-368 516 0 861 121 1034 362 178 245 201 683 70 1313-135 638-345 1082-628 1332-283 249-681 374-1192 374-516 0-861-125-1034-374-169-250-188-694-57-1332zm1725-1281c-393 0-675 84-844 253-173 165-317 512-431 1041-106 520-108 866-6 1040 110 173 353 260 729 260 385 0 666-89 844-267 181-181 325-526 431-1033 59-275 91-496 95-663s-25-298-89-393c-63-96-151-159-263-191-112-31-267-47-466-47zm2010 2518h1269c182 0 319-43 412-127 93-85 159-222 197-413 88-414-38-621-381-621h-1249l-248 1161zm324-1523h1218c312 0 503-160 570-482 34-164 25-279-28-342s-168-95-346-95h-1218l-196 919zm1459 172c473 17 657 291 551 824-127 605-484 907-1072 907h-1750l679-3203h1693c304 0 507 66 609 197 101 131 125 319 70 564-43 229-122 399-238 511s-297 179-542 200zm2562 1820c-410 0-708-75-895-225-186-150-279-401-279-752 0-186 30-427 89-723 136-634 338-1072 609-1313 275-245 672-368 1192-368 195 0 415 24 660 70 237 43 431 104 583 184l-469 2188c-21 106-32 191-32 254 0 169 64 323 191 463l-374 266c-51-42-99-103-143-184-45-80-69-150-73-209-258 233-611 349-1059 349zm634-2987c-389 0-668 84-837 253-178 170-319 516-425 1041-59 296-89 515-89 659 0 237 61 403 184 498s328 143 615 143c258 0 479-42 663-124s291-191 320-327l425-2010c-228-89-514-133-856-133zm3831 2898 330-1560h-1732l-330 1560h-412l679-3203h412l-273 1281h1732l272-1281h413l-679 3203h-412zm3678-380h1269c182 0 319-43 412-127 93-85 159-222 197-413 88-414-38-621-381-621h-1249l-248 1161zm324-1523h1218c312 0 503-160 570-482 34-164 25-279-28-342s-168-95-346-95h-1218l-196 919zm1459 172c473 17 657 291 551 824-127 605-484 907-1072 907h-1750l679-3203h1693c304 0 507 66 609 197 101 131 125 319 70 564-43 229-122 399-238 511s-297 179-542 200zm3615 1351h2403l-76 380h-2993l69-355c246-169 647-446 1206-831 591-406 1054-759 1388-1059 127-118 233-239 318-362 84-122 143-230 177-323s66-209 95-349c68-313 30-530-114-653s-418-184-824-184c-174 0-383 17-628 51-237 34-406 74-508 120l-25-412c490-114 909-171 1256-171 554 0 936 96 1148 288 211 193 270 509 177 948-63 305-177 576-342 812-157 224-444 501-863 831-384 300-1006 723-1864 1269zm4915 469c-364 0-641-70-831-209-423-309-501-1026-234-2150 181-859 429-1451 742-1776 308-322 742-482 1300-482 275 0 498 34 669 101 171 68 310 187 415 359 106 171 155 401 146 691-8 290-55 658-139 1107-182 875-436 1488-761 1839-322 347-757 520-1307 520zm894-4249c-283 0-507 44-672 133-338 182-613 767-824 1757-157 765-184 1285-83 1560 106 270 359 406 761 406 410 0 727-138 951-413 229-287 421-805 578-1553 84-406 134-733 149-980 14-248-11-439-76-574-66-136-159-225-280-270-120-44-288-66-504-66zm3051 4249c-364 0-641-70-831-209-423-309-501-1026-234-2150 181-859 429-1451 742-1776 308-322 742-482 1300-482 275 0 498 34 669 101 171 68 310 187 415 359 106 171 155 401 146 691-8 290-55 658-139 1107-182 875-436 1488-761 1839-322 347-757 520-1307 520zm894-4249c-283 0-507 44-672 133-338 182-613 767-824 1757-157 765-184 1285-83 1560 106 270 359 406 761 406 410 0 727-138 951-413 229-287 421-805 578-1553 84-406 134-733 149-980 14-248-11-439-76-574-66-136-159-225-280-270-120-44-288-66-504-66zm3539 2372c-600 0-1000-93-1198-279-199-186-248-518-146-996 110-520 314-894 612-1123 298-228 726-342 1284-342 613 0 1013 105 1199 317 186 211 215 619 89 1224-106 499-332 972-679 1421-144 190-321 386-533 589-190 186-380 360-571 520-169 140-365 292-589 457h-635c990-702 1671-1319 2043-1852-334 42-626 64-876 64zm1351-1123c89-431 98-740 26-926-60-127-157-210-292-250-135-41-338-61-609-61-431 0-740 83-926 248-186 169-317 431-393 786-85 376-64 626 63 748 131 123 421 184 869 184 398 0 740-27 1028-82 105-190 184-406 234-647zm2373 2911 678-3203h2036l-82 381h-1624l-596 2822h-412zm3000-1617c135-634 340-1070 615-1307 275-245 672-368 1192-368 516 0 860 121 1034 362 177 245 201 683 70 1313-136 638-345 1082-628 1332-284 249-681 374-1193 374-515 0-860-125-1033-374-170-250-189-694-57-1332zm1725-1281c-394 0-675 84-844 253-173 165-317 512-431 1041-106 520-108 866-7 1040 110 173 354 260 730 260 385 0 666-89 843-267 182-181 326-526 432-1033 59-275 91-496 95-663s-26-298-89-393c-63-96-151-159-263-191-112-31-268-47-466-47zm1027 3710 140-1192h526c499-948 871-1888 1116-2823h1947l-602 2823h583l-361 1192h-311l178-812h-2734l-177 812h-305zm2715-1192 520-2442h-1142c-228 752-560 1566-996 2442h1618zm2283 532c-93-1450-248-2568-463-3355h463c177 795 306 1740 387 2835 689-1108 1226-2053 1610-2835h451c-465 897-1089 1964-1871 3203-279 440-558 846-837 1218h-482c236-313 484-668 742-1066z"/><path class="fil0" d="M10717 40c148-8 297 4 443-26 199-18 398-9 598-14 712 3 1426-6 2139 10 364 57 734-1 1098 52 378 15 757 11 1133 57 221 10 443-9 661 32 184 19 370-4 553 21 196 36 396 16 593 31 278 38 560 34 840 56 208 43 422 0 630 43 177 33 358-1 534 34 171 27 346 11 519 33 141 8 281 39 423 34 95 0 190 3 284 22 141 31 287 3 429 29 169 38 345 9 514 43 424 40 846 67 1267 124 558 65 1127 159 1634 414 276 132 560 305 701 587 86 157 41 343 99 507 421 987 896 1951 1326 2934 25 62 101 67 157 82 360 76 712 218 998 453 131 109 158 286 189 444 42 167 30 340 29 511 4 113-74 221-179 261-61 10-123 13-184 22 194 121 428 137 648 177 478 88 952 193 1426 299 491 125 987 247 1452 453 234 99 467 213 653 389 80 64 142 169 256 168 117-201 189-436 357-602 295-15 594-6 886 42 110 75 195 181 280 282 101 135 229 269 236 447 315 112 580 371 663 696 102 299 98 618 121 929 38 423-11 851 49 1273 12 215-13 433 34 645 6 214 16 428 57 639 160 211 446 232 645 388 233 166 327 466 313 742 11 179-44 354-37 533-60 435-113 873-156 1310-1 256 33 523-64 768-136 343-403 635-738 797-228 111-483 141-730 185-284 565-559 1143-963 1635-340 403-770 741-1267 929-548 219-1138 333-1729 332-653 16-1312-11-1949-171-398-85-785-245-1101-504-344-307-663-644-926-1023-348-467-512-1035-635-1595-116-2-231-1-345 11 100 70 229 96 310 192 60 69 139 155 101 254-61 71-161 100-215 175-20 609-6 1220-14 1829 7 334-21 667-13 1001 4 934-2 1868-2 2803 209-82 449-41 638 69 68 54 156 122 141 218 13 77-72 129-141 109-89-50-147-135-205-215-147-10-302-3-434 69 176 175 356 347 544 510 291 283 598 552 886 838 78 78 168 147 225 243 72 126 72 316-60 405-52 57-131 19-188-8-91-36-144-124-176-211-21-75 3-155-19-231-88-114-212-194-310-298-204-214-430-408-614-641-99-100-187-211-282-315-9 68-13 139-19 208-72 3-145 2-218-3-51-125-35-263-53-394-215 75-409 194-617 286-464 213-964 335-1467 417 56 118 30 245-45 347-144 4-321-96-309-257-5-122 118-200 223-229 532-149 1076-274 1587-491 217-94 404-250 633-320-2-1105 0-2210 0-3316 2-260-8-521 9-781-19-552-2-1106-12-1659-10-124-43-245-36-371 11-82-65-132-113-186-34 31-69 60-100 95-9 46 30 86 42 130 36 64-18 127-36 188-38 106-99 203-175 286-104 122-279 151-377 280-255 304-474 634-718 946-234 325-476 643-706 971 24 58 59 120 38 185-43 112-101 220-184 309-90 95-180 203-313 237-84-11-151-83-238-82-120-5-241 1-361-1-135 611-256 1225-385 1838-156 73-301 167-459 238-176-267-386-511-557-781 25-219 83-433 121-650 201-1083 418-2163 619-3245-176-3-352-9-527 0-182 749-517 1471-1041 2044-236 277-520 513-832 702-426 235-909 359-1393 392-186 43-377 23-566 29-357 7-714 0-1071 0-158 4-311-44-469-40-169-27-339-41-506-77-199-38-388-113-580-175 42 164 221 283 190 465-15 195-157 342-298 465 227 15 430 146 657 168 240 9 481-9 721 3 122 39 187 163 223 279 66 267-21 551-196 760-198 255-460 452-744 602-267 139-571 244-875 192-139-36-282-61-411-129-209-96-429-217-668-175-175 44-356 37-535 34-284-22-521-245-611-506-78-183 17-374 40-558-55-4-122 19-166-26-98-77-104-212-141-321-32-1-96-2-127-4 91 261 192 518 283 778 20 50 20 104 24 157-73 27-145 53-217 82-137-56-151-207-205-325-61-1-123 0-185 1 12 104 53 201 95 296 56 153 106 309 164 462-69 82-199 127-290 56-46-78-68-165-90-251-256 40-491 157-736 235-965 338-1927 688-2903 993-146 33-285 106-438 94-295 8-590-21-884-3-156 7-250 160-268 299-12 163 3 326-11 489-119-85-147-236-173-370-23-152-22-333 103-444 188-218 507-210 769-173 196 4 392 14 588 4 219-42 427-126 640-191 713-212 1398-503 2101-742 304-103 605-211 911-306 66-18 122-59 172-103 7-71-30-137-51-202-178 22-344 98-512 157-958 335-1912 682-2880 990-289 86-575 213-884 205-290-14-582-30-873-19-162-5-287 131-329 277-45 208-21 423-35 635-197-192-217-498-184-755 94-238 347-391 601-387 195 2 391-3 586 11 148 23 299 40 449 20 567-151 1121-342 1679-522 636-221 1278-425 1914-644 132-41 261-90 395-124-27-146-84-285-144-420-406 158-820 292-1228 441-561 191-1117 397-1682 580-423 131-840 285-1269 397-167 44-339 59-511 45-270-43-545-25-818-30-165-10-331 93-395 246-108 257-42 542-73 812-179-193-221-474-216-727-5-225 166-412 355-513 304-124 641-52 960-60 208-13 416 63 622 11 315-74 618-188 928-278 1254-403 2499-832 3749-1248-52-149-134-289-161-445 55-98 174-116 273-143 111 140 142 320 224 475 102-113-8-250-41-368-77-233-176-458-247-694-156 0-313 15-467-5-132-35-260-97-351-201-128-126-192-296-270-454-278-98-608-95-830-311-335-37-677 115-1011 21-145-34-265-127-379-218-145-132-287-286-342-477-15-114-34-228-41-343 9-234-178-410-201-639-151-16-321-11-440-119-65-65-138-144-128-243-9-93 22-182 49-269-53 11-107 25-160 39-83 257-206 498-325 740-113 197-221 399-371 570-85 98-204 162-330 188-184 55-379 19-566 54-452 13-905 19-1356-19-320 9-617-155-831-383-262-259-327-633-456-963-108-255-193-522-225-798-14-215-52-429-40-645-117 15-240 29-353-16-225-82-447-195-608-376-107-118-174-275-173-434-4-209-53-420-162-599-188-384-436-771-418-1214-15-343 208-656 495-827-65-322-28-655 77-964 62-157 37-327 41-490-15-297 19-600-45-892-92-175-138-374-101-570 22-90 72-170 102-257 21-168-30-333-20-500-10-194 9-389 56-577 27-102 89-193 102-300 220-1368 428-2737 635-4108 28-239 75-475 135-709 36-144 105-281 113-431-123-243-150-551 3-786 100-131 217-265 383-311 94-36 202-35 287-91 328-201 705-293 1069-404 1008-283 2032-506 3050-746 1051-234 2102-469 3161-668 234-41 471-67 706-101zm363 22226c54 127 80 264 143 388 53 45 121-18 173-42-43-122-87-243-127-366-63 5-126 12-189 20zm1621-20090c-148 132-41 336-43 500 142 894 322 1781 474 2672 41 240 41 494 153 715 74 115 214 158 342 183 190 27 384 38 575 60 265 10 532 0 795 35 556 19 1113-12 1666 39 510 5 1020 6 1530 5-6-236 11-474-24-708 2-284-10-568-5-852 528-9 1056-5 1584-11 596-55 1196-20 1794-37 198-25 397-18 596-24 364-4 727-21 1091-22 375-7 751 2 1125-35 1 254-5 508-6 762 4 337-33 674-3 1011 607-1 1215 1 1822-1 74-4 163 19 218-44 88-58 43-171 21-253-159-485-403-935-609-1401-283-579-498-1189-791-1763-115-215-290-426-538-486-253-59-512-81-771-81-259-45-523-26-785-34-403-50-809-21-1213-58-325-31-651-18-977-36-279-44-563-12-844-32-346-56-700-4-1048-51-490-24-983-15-1472-63-325-8-652 16-975-29-441-23-883 14-1322-36-640-13-1281-12-1920-11-148 3-314-1-440 86zm923 19996c-45 201-191 360-344 489-118 111-295 71-441 64-117-48-249-96-321-207-70-84-98-193-120-298-30 3-59 7-89 10-21 141-23 284-32 426 208 159 463 237 715 296 251 64 509 88 765 122 336 50 672 141 1013 90 299-55 523-299 663-554 70-128 174-239 211-383-263-1-531 30-790-38-79 177-206 327-355 451-35-28-71-56-106-83 133-123 259-257 330-425-34 1-69 1-103 2-80 151-203 283-362 354-26-33-52-66-78-98 148-76 248-208 335-345-140 112-266 290-465 281-8-37-15-74-22-109 107-47 217-100 285-199-201-25-403-11-605-2-67 21-69 99-84 156zm-486 32c-182 43-369 15-553 17 26 91 45 202 138 250 123 73 286 148 422 66 151-109 279-262 314-448-105 43-209 91-321 115zm2404 579c-173 225-369 460-655 538-419 107-846-29-1261-84-489-56-1006-127-1419-413 16 171 115 334 266 422 173 72 371 59 551 19 142-15 286-16 427-1 328 97 625 313 977 308 387-47 732-258 1026-502 199-177 386-425 346-706-100 131-169 281-258 419zm8888-5719c-98 15-206-12-296 40-129 60-222 171-322 268-208 213-433 428-721 527-153 60-320 67-482 84 19 77 48 151 60 229-30 269-108 530-156 797-77 399-169 795-242 1194 84-4 181 20 250-42 115-65 175-187 257-285 66-91 153-161 237-234 280-299 496-649 757-964 188-250 398-483 572-744 86-114 3-272 82-390 133-215 368-333 545-507-180-5-363-8-541 27zm-2672 560c-8 194-72 379-97 570-227 1184-447 2368-675 3551-4 38-4 76-1 114 107 182 244 346 346 532 101-421 169-849 266-1270 205-1040 425-2076 629-3116-166-115-299-269-468-381zm-8924-5232c7 54 2 110 22 162 36 50 106 48 160 67-51-83-116-157-182-229zm335-1600 92-28c-47-103-100-203-152-303-24 116-28 239 60 331zm162-505c38 109 91 211 149 310 254-130 524-228 800-302-315-22-633-8-949-8zm803 391c118 28 241 8 360 28 177 30 358 12 537 22 252 39 518 47 751 163 160 74 281 209 389 344 396 590 632 1265 877 1926 220 647 437 1296 657 1942 130-5 268 21 391-35-30-365-135-725-288-1059-42-109-45-250 37-343 149-176 336-312 518-451-154-455-310-910-495-1354-60-167-159-315-209-485-113-185-198-396-367-539-181-131-407-168-621-205-231-47-465-70-698-99-614-42-1250-61-1839 145zm-4483 9154c163 67 336 102 510 128-84-62-165-136-263-175-85 0-165 31-247 47zm1981 949c144 427 326 841 463 1272 34-13 67-26 102-38-136-255-249-520-327-798-55-172-14-354-28-531-70 31-141 61-210 95zm-939-4942c-61 85-134 161-199 242 134-59 267-120 390-200-64-15-127-29-191-42zm-100 3681c86 84 185 158 304 187 181 45 364 96 552 92-87-197-204-380-287-579-187 106-385 190-569 300zm-491 181c177 109 372 225 590 176-110-80-202-185-317-257-94 17-181 59-273 81zm698 361c-163 34-330 2-492-25 163 182 189 476 437 580 347 126 707-34 1031-154-70-154-138-311-225-457-30 0-90 2-119 3-15 144-48 389-251 349 76-103 155-210 145-347-130 69-214 194-323 287-19-4-55-14-73-18-6-30-11-59-16-89 80-63 161-128 215-216-121-25-217 62-329 87zm-579-9812c-97 141-211 269-303 413-15 33-50 64-39 104 26 52 77 84 120 122 152 121 277 269 421 399 129 102 247 243 427 246-92-237-267-469-198-737-232-79-437-290-428-547zm1455 2162c109 328 79 677 60 1016-2 98-40 203 1 299 136 98 300 150 437 247 0-135 3-270-21-403-32-215-21-434-58-648-26-172 32-338 36-508-152-3-303-6-455-3zm-4387 1827c-10 130-71 259-44 390 112 138 264 240 429 302 175 64 363 71 545 107 30 27 54 61 80 93-43 15-84 41-130 40-232-22-466-59-676-164-131-60-230-166-328-267-28 54-65 104-79 164-23 230-13 465 60 686 21 289 34 591-75 867-38 147-196 226-211 383 245 116 521 190 791 132 309-95 549-326 748-569 119-135 213-300 372-392 58 137-65 241-140 339-230 281-488 556-818 720-293 130-621 57-910-44 22 167 127 306 198 456 266-74 514-197 752-333 194-115 387-237 542-402 206-198 357-442 535-663 41 45 66 109 36 166-108 179-242 341-378 499-180 199-403 355-628 500-250 138-502 276-778 355-82 66-108 181-161 270 66 104 193 139 310 119 2-130 64-261 188-315 148-52 285 103 431 39 61-46 103-111 159-162 303-294 522-670 865-924 105-89 263-73 360-173 74-73 142-151 194-240 74-142 32-306 76-456 21-7 63-22 83-29 69 128 37 276 17 412-14 111-90 201-148 293 113-24 237-38 324-122 189-168 394-322 556-519-255-50-520-84-747-219-382-227-765-458-1177-624-446-163-904-351-1223-715zm3064 2199c-96 51-209 76-294 146-190 238-384 472-577 707-69 137-11 298-26 446 7 61-58 87-93 125-102-240-114-560 84-756 114-158 266-285 371-450-116 3-226 39-337 65-82 14-114 102-165 157-176 250-393 470-557 729-136 217-198 469-236 719-26 126-27 259-98 371-21-2-61-7-82-10-25-219 54-433 88-647 95-497 478-853 771-1241-83 37-170 73-228 144-115 137-233 269-346 408-200 208-356 470-617 611-134 78-285 12-416-39-7 188 26 380 104 552 59-139 155-265 296-331 1 43 26 93-5 132-76 119-167 234-206 371 26 182 57 363 67 546 101 217 289 400 512 490 297 44 601-1 895-50 118-210 239-420 314-649 41-220 35-445 62-667h112c17 211 15 426-21 635-44 237-176 440-284 651 86 3 180-6 242-73 77-154 149-310 227-463 97-192 117-408 174-613 36-7 72-14 109-20 36 394-190 735-332 1085 413-127 811-308 1182-527 23-219-63-425-122-631-105-383-103-806 64-1171 74-154 136-331 289-423 56 53 110 106 165 159-176 201-277 459-321 720-2 199-35 410 53 597 210-278 421-557 639-828-112 91-171 232-289 317-35 30-93 39-122-3-79-65-78-173-74-266-7-72 69-105 111-151 28 84 46 171 62 258 149-190 261-421 482-542 38 38 76 77 114 116-54 251-238 439-388 638-182 204-326 438-505 643 105 287 137 597 275 873 185 361 378 719 543 1091 48 123 109 248 102 384 0 84-39 165-31 250 54 253 140 499 255 731 32 58 63 125 131 147 100 36 207 81 315 70 213-53 428-97 638-157 198-60 410-45 609-100 172-58 350-151 427-325 58-114-66-200-107-296-119-248-142-538-295-772-119-182-219-378-270-590-77-252-92-518-170-771-82-313-187-621-307-922-76-230-204-453-194-702 14-274 73-553 3-824-65-159-238-228-379-305-373-154-775-244-1178-262-444 48-817 316-1215 493zm1758-1377c-196 193-407 386-529 637 205-11 403 41 605 63-76-95-154-192-202-304 17-31 33-60 50-89 142 98 199 292 372 352 198 89 416 15 623 29v78c-101 55-213 82-326 98 153 38 286 121 417 205 190 31 384 20 574 56 475 14 951 20 1426-1 138-25 277-37 415-63 176-30 332-123 503-171 277-35 549 47 809 131 84 31 175 23 262 23-134-392-305-770-423-1166-84 87-173 195-305 203-271 33-546 19-817-2-325-6-652 13-975-33-357-16-716 17-1070-35-224-21-463 33-674-66-111-47-169-159-231-255-195 50-361 172-504 310zm-8147-4586v54c242-18 496 24 691 175 1-79 0-157-1-235-229 1-460 5-690 6zm680-7196c-316 49-633 92-946 159-208 41-432 65-606 195-96 186-105 402-136 605-115 871-218 1743-312 2617-28 139-11 283-38 423-26 127-17 257-16 386 193 10 389 12 578-29 191 6 376-47 566-44 228-35 458-47 683-97 103-46 121-162 146-259 49-285 78-573 108-861 31-139 10-283 48-421 61-772 158-1538 234-2309 28-130 22-263 22-394-111 1-223-2-331 29zm6441-2360c-322 37-645 57-962 125-1137 211-2265 468-3392 725-992 230-1987 447-2963 739-128 47-271 68-381 153 232 17 460-34 689-63 584-107 1168-217 1751-331 1861-376 3726-730 5587-1103 324-8 649 1 973 3 271 34 545 26 817 33 336-6 671 23 1007 28 480 43 966-6 1445 52 409 17 821-19 1228 33 399 18 799-8 1196 30 529 18 1057 26 1585 40 477 56 960-10 1436 53 408 21 818-15 1224 33 180 8 360 3 540 1-170-35-345-12-517-31-144-50-298-20-445-49-217-27-436-23-652-56-146-26-297 0-442-29-158-37-321-7-481-33-207-39-419-10-626-44-227-35-456-19-683-43-190-43-387-7-578-34-225-47-456-5-680-47-270-18-541-21-811-44-255-41-517 2-771-48-257-24-517 13-772-34-220-19-441-9-662-15-627-56-1257-43-1887-53-591-9-1182 7-1773 9zm11388 4092c-594 8-1188 20-1781 31-356 35-714 11-1071 22-240 9-483-12-722 26-152 9-305 4-458 7-4 155-5 309 1 463 854 21 1709 28 2564 44 230 6 461-6 691 19 420 6 840-2 1260 5 199 6 399-6 596 26 174 9 349 6 524 8 12-228 31-455 23-684-287-1-574-1-861 3-254 30-511 21-766 30zm-4031 740c-2 156-1 312 2 468 120 8 241-1 360 26 152 28 307 4 460 31 203 29 407 32 612 48 173 42 354 4 528 45 116 22 234 10 352 19 256 42 519 28 776 69 145 24 294-1 439 30 154 37 315 1 470 36 167 32 339 6 507 39 180 27 363 27 545 38 190 39 384 27 577 35 0-243 7-486 8-728-237-6-476 11-713-19-250-13-502-13-752-19-389-23-779 0-1166-44-417-15-836 18-1250-35-423-18-847 16-1267-31-163-4-326-10-488-8zM9671 2345c-169 36-368 41-496 172-135 237-106 520-139 782-39 296-13 594-35 891-49 320-10 646-35 969-40 233-23 471-31 706-37 378-45 758-29 1136 34 6 68 12 102 19 14-302 65-603 156-892 42-136 128-267 264-326 479-202 1005-238 1515-298 207 3 422-30 617 59 0-100-3-201-24-300-71-710-163-1421-288-2125-67-328-113-663-236-976-454-11-896 112-1341 183zm-3449 712c-81 25-194 37-212 138-51 188-64 383-67 577-37 313-42 629-55 944-46 220-9 444-41 664-39 198-10 401-32 600-40 272-17 548-40 822-3 141-24 283-6 424 134 4 269 4 403-5 328-57 663-14 994-38 129-21 260-24 390-31 35-365 83-728 100-1095 43-160 11-327 53-487 16-287 53-573 72-861 40-168 10-343 51-511 22-136-1-276 29-411 22-119 15-241 22-361 17-224 58-447 42-673-572 71-1142 169-1703 304zm3270 7229c38 110 113 203 195 285 85 4 97-122 144-179-109-48-213-131-339-106zm-4215 159c11 36 5 80 32 110 40 69 132 39 198 52 17-54 33-108 46-162-92-3-184-2-276 0zm3282-67c4 31 7 62 12 92 70 23 143 39 218 41 26-45 52-89 77-134-103-4-205-2-307 1zm2255-2079c-228 94-447 273-490 528-54 350 1 707-7 1059 67-62 142-137 242-130 93-1 191-14 280 13 184 101 297 288 384 471 126-145 240-306 401-415 35-26 82-45 93-92 55-168 129-337 252-467 91-96 232-85 352-69 151 61 273 174 405 266 104 71 194 202 337 174 12-178-43-365-165-498-173-170-384-294-586-426-243-138-484-282-741-395-237-100-519-136-757-19zm1234 1135c-77 122-124 259-166 395-29 135-199 134-277 229-110 130-207 274-339 383-58 20-140 11-165-53-76-145-141-306-273-413-133-116-368-49-435 110-20 155 6 334 134 439 152 143 393 116 535 275-21 26-42 53-62 79-70 3-139 4-208 9 14 182 97 350 180 510 48 109 171 142 269 194 120 51 208 152 293 247 58 66 76 170 164 208 144 69 287 150 450 163 45-119 116-227 152-349-185-24-330-140-459-263-63 38-106 100-162 146-1-46-14-93 1-138 93-129 232-254 403-235-39 67-96 120-163 159 108 135 276 234 455 196 41-117-101-152-166-219-20-138 74-258 189-321l48 84c-39 64-78 129-94 203 109 37 222 35 335 28 20-241-51-494 43-725-24-29-48-57-72-86-76 0-153-6-227 7-68 36-121 108-203 113-96 14-145-94-229-119-67-23-132-47-197-75 2-20 4-59 6-79 75-8 151-16 225 5 127 36 262 28 393 14-135-148-348-51-520-80-2-19-6-58-9-77 76-33 151-80 236-78 261-19 488 148 664 321 11-1 33-2 45-2 99-235 50-495 60-743 8-79-69-127-122-172-180-129-343-292-556-368-66-11-143 18-176 78zm-3048 1759c57 303 264 543 454 774 64 84 177 84 271 111 214 47 403 167 572 301 262 206 504 437 725 686 146 165 270 349 434 497 49-155 25-318 34-478-5-200 29-415-73-598-87-95-210-145-318-211-375-213-806-290-1189-485-315-150-656-336-796-673-69-145-44-307-64-460-67 168-107 359-50 536zm234-730c-55 274-62 607 155 818 309 317 747 450 1151 606 301 92 584 231 856 388 44-190-83-375-253-452-165-49-340-27-505-73-176-69-302-215-441-336-210-176-400-373-593-565-127-126-215-290-370-386zm-780 806c-387 385-848 703-1162 1157-97 136-86 312-73 470 25 137 14 277 36 414 64-373 71-785 318-1096 127-137 262-272 430-357 232-127 510-124 766-96 172 15 317 115 471 181-123-188-277-360-345-578-64-169-51-354-50-531-136 140-254 297-391 436zm-803 1324c-114 388-136 793-204 1189-16 107-29 228 52 314 197 224 470 373 747 477 286 14 573 19 858 35 163 22 328 6 487 50 192 48 394 88 555 209-5 19-15 57-19 76-62 3-126 3-181-27-400-169-844-180-1272-164 226 88 441 200 652 318 279 159 544 358 865 425 159-123 304-261 456-392 53-47 124-34 187-27-112 189-312 302-466 454 193 9 381 57 568 101 91-23 161-105 216-178 80-106 69-247 134-359 18 3 55 11 73 14 5 82 11 164 2 246-42 144-165 242-240 368 73 2 166 6 194-78 106-233 287-417 460-602 223-223 464-442 768-547-146-111-305-203-463-295-58-35-125-6-185 6-208 56-421 92-624 163-300 100-616 131-927 170-312 19-643-33-898-223-103-78-228-146-286-266 11-52 56-50 96-33 133 67 236 181 371 245 106 52 218 94 334 116 288 13 578 12 862-48 345-49 662-221 1013-239-3-12-9-35-11-46-65-19-132-23-188 19-169 110-377 114-572 124-304 11-614 4-907-85-78-14-138-65-198-113 54-34 114-69 179-45 238 76 489 100 737 117 245-23 501-21 725-133-305-131-522-390-714-649-243 149-494 292-765 386-192 76-411 7-566-116-117-117-266-267-201-448 112-172 328-198 509-255 149-51 307-70 456-121-93-106-217-178-331-260-293-199-662-201-1002-179-211-2-347 205-551 225 3-40-9-84 12-120 176-126 367-231 581-276-86-39-172-77-262-102-145-14-292-14-436-3-313 50-560 302-680 582zm2146 446c-100 32-220 38-291 124-18 70 35 129 70 183 138 174 392 215 592 130 201-82 391-190 583-291-38-140-170-228-288-297-229 10-444 101-666 151zm2570-4545c82 51 165 104 252 149-47-148-37-322-141-447-44 97-77 198-111 298zm444-216c5 56 9 112 15 168 72-53 136-115 211-164-75 0-151-3-226-4zm228 217c312 21 623 60 935 72 117 2 232 51 348 14-121-24-242-48-364-66-136-7-273 1-406-34-171-8-345-20-513 14zm32 164c-4 19-8 38-11 58 124 3 250-4 372 24 119 27 241 7 361 21 207 43 419 23 627 61-5-17-15-48-20-65-212 11-418-49-631-42-232-26-465-42-698-57zm11 224c8 15 26 44 35 59 128 43 268 40 401 57 192-13 378 48 569 38 137-4 269 49 407 29-15-22-44-65-60-87-198-35-403-16-601-54-130-22-264 2-393-25-117-28-239-25-358-17zm98 239c2 18 4 54 5 71 186 3 368 48 554 42 267 22 532 62 801 51-10-9-28-28-38-38-201-58-415-45-622-62-139-37-282-20-422-34-92-17-185-25-278-30zm67 233c15 52 37 109 99 115 370 28 741 57 1113 42 40-3 65-43 98-64-438-5-873-62-1310-93zm-4756 371c1 62 3 124 5 186 108-3 216-4 324-10-30-74-67-144-108-211-74 10-147 24-221 35zm-3253 161c-8 28-16 55-23 82 80 0 160-1 240-1-1-30-2-59-2-88-72 2-144 5-215 7zm7664 1074c-10 219 9 438-7 658-13 203-264 316-239 527 61 109 180 167 277 240 82 71 145 160 224 235 31-65 69-128 97-195-54-129-157-233-199-369 143 84 237 225 368 324 18-11 53-32 70-43 15-62 43-123 47-187-71-103-153-198-210-309 115 60 218 141 307 235 64-1 128-2 192-6 20-172-207-248-175-424-14-95 93-119 160-146-32-140-47-296-148-408-149-134-368-89-548-135-54-35-94-84-140-128-30 40-80 75-76 131zm560 1587c-87 16-116 102-159 166-79 115-28 260-57 388-39 176-23 358-28 536 163-143 272-338 451-466 166-158 350-294 540-422-176-120-354-240-514-381-62 77-134 152-233 179zm689-940c45 95 58 202 40 306-25 80-114 98-181 129-20 80-65 149-132 198 174 101 318 244 485 356 51 31 115 9 163-17 357-197 762-303 1167-331-59-212-155-451-373-543-212-79-444-60-666-92-167-17-335-7-503-6zm7546 1840c-891 14-1782-2-2673 4-203-3-436 21-580 179-86 90-191 157-286 236 166 322 250 678 315 1032 15 139 8 285-77 403-122 165-342 178-530 183 54 236 176 451 269 674 143 263 279 542 511 740 81 93 189 170 319 167 816 2 1633 3 2450 7 313 25 629 31 942 2 154-13 317 20 464-41 71-21 119-82 172-130 119-122 248-235 370-354 189-184 429-322 694-364 353-64 714-30 1069-76 244-8 489 0 733-13 326-50 656-17 984-35 223-32 449-25 674-32 274 9 545-25 818-27 507-42 1018 1 1524-54 761-1 1523-20 2284-1 93 6 184 30 274 54 221 68 363 263 545 393 94 66 168 155 257 227 123 30 245-27 369-26 158-3 313-44 471-55 247-39 499-60 740-129 215-82 341-306 342-529-246 197-574 167-866 219-137 3-273 2-407 29-149 4-315 47-449-35-136-111-228-262-331-400-197 20-398-13-592 19-226 113-485 111-732 108-661 66-1328 32-1990 84-548 8-1099-13-1646 35-517 7-1035 2-1553 7-491 42-987 24-1481 25-152-20-320-6-452-97-27 23-55 45-83 66-178 12-357 4-535 4-59 4-113-20-167-39-156 173-347 306-526 453-131 94-247 218-407 264-125 15-252 9-377 11-713-6-1425-4-2138-7-255-7-492-108-692-260-165-92-248-289-225-471 39-266 30-536 62-803 32-167 5-339 31-507 32-157 2-330 103-467 91-165 290-218 467-219 221 0 442 6 662-10 902-2 1804-18 2706-19 159-9 338 47 410 200-18-107-17-224-82-316-94-118-240-175-347-277-34-27-64-72-113-65-302 1-605 1-907 5-261 35-524 22-787 28zm-5807 265c175 126 358 246 518 391-40-103-73-209-114-312-132-38-268-57-404-79zm-1361 318c71 289 202 559 320 830 247 27 496 27 743 32-53-379-147-751-202-1129-35-65-109-26-165-20-251 43-473 171-696 287zm1080-232c-10 107 29 209 44 313 48 258 87 520 179 766 141 55 303 16 453 25 146 3 230-131 294-241 1-169-135-293-269-377-243-149-447-353-701-486zm-1858 1042c265 7 530 18 795 16-95-211-167-432-271-639-208 177-384 389-524 623zm2461 1345c-5 85-5 170 2 254 51-2 119 30 154-23 59-44 33-126 38-189-64-17-128-33-194-42zm-566 261c-91 80-102 210-107 323 88-23 173-53 257-85 9-106 12-214 7-321-54 23-115 39-157 83zm289-74c-25 111-50 223-44 337 51 99 125 185 192 273 106-199 87-511-148-610zm-1191 92c-204 15-408-6-612 10 180 105 374 186 550 298 111 71 236 114 352 177-52-163-44-347 9-509-100 4-200 10-299 24zm-1361 27c45 184 43 376 24 563-34 194-55 404 38 586 178-101 339-229 521-325 44-28 98-29 149-37 23 132-118 167-205 226-137 90-266 192-413 266 78 240 166 478 262 712 164-94 344-171 470-316 83-119 131-258 216-376 18-1 53-3 70-4 28 174-77 327-169 466-125 117-259 228-419 296 173-35 350-40 518-91 93-27 197-56 252-141 47-97 59-205 96-305 18-9 56-26 74-35 14 20 42 59 56 79-39 120-34 264-128 360-54 62-120 114-197 142-247 95-515 101-771 153 22 88 43 176 64 264 325-84 648-184 955-320 202-115 406-249 524-454 107-150 88-342 76-515-34-123-69-258-164-349-195-100-408-167-598-277-206-120-419-225-629-337-66 34-138 60-196 108-73 68-125 167-230 192 0-55-12-114 9-166 64-91 156-157 252-212-166-60-332-124-507-153zm3643 433c51 176 210 283 332 409 155 125 293 269 450 393 133 118 257 248 411 342 22-99 46-197 64-295-407-284-704-695-920-1134-31-49-45-115-100-144-137 99-246 255-237 429zm-1756-54c34-50 96-93 93-160 8-79-67-128-111-182-138 68-158 314 18 342zm290 18c51 112 153 236 290 221 52-8 129 5 151-56-50-87-118-163-177-243-90 21-177 50-264 78zm710 460c21 10 63 31 85 41 34-30 69-60 104-89 8-90-6-259-136-229-96 57-78 185-53 277zm-705-49c42 87 82 175 122 264 118-75 102-234 8-319-44 18-87 35-130 55zm797 370c330 577 786 1069 1195 1592 225-258 404-556 543-868-169-160-324-335-503-485-230-190-463-377-708-547-50-34-98-72-156-89-107 147-246 265-371 397zm-632 79c-19 191-18 397-128 565-141 229-361 404-593 538-113 70-290 91-322 243-38 127-81 253-122 379 144 81 273 185 423 255 129 68 268 110 402 163 78-270 143-544 201-819 104-433 195-872 209-1317-17-2-52-6-70-7zm372 432c-115 279-145 584-235 872-59 300-155 592-203 894 612 96 1256-107 1713-521-305-347-596-709-932-1028-100-93-191-225-343-217zm-1884 961c33 40 65 81 97 122 15-1 46-1 62-2 14-61 32-121 51-181-69 25-139 45-210 61zM2672 12089c-67 347-120 702-81 1057 113-139 164-316 274-458 97-154 245-268 398-363-48-133-107-261-166-390-154-26-371-26-425 154zm604 1258c8 338-18 680 32 1016 2 257 5 546 191 747-49-329-73-662-56-995 33-259 22-522 29-784-66-4-131 2-196 16zm-536 866c126 205 262 403 409 593 10-463 6-928 0-1391-232 203-324 513-409 798zm863-771c-12 245-1 491-6 737 1 251-13 504 6 756 180-112 291-300 444-442-100-366-174-764-444-1051zm-2222 321c-3 85 8 171 45 249 108 236 222 471 348 699-60-149-34-314-41-470-16-183 98-339 119-517-154 36-313 41-471 39zm1300 731c-45 216-92 435-96 656-12 49 35 77 68 104 102 75 191 170 309 223 47 25 115 53 154 0 61-75 91-188 35-274-139-248-324-466-470-709zm1370 319c-135 116-283 236-360 402-27 168 84 320 130 478 117 44 234-22 339-69 1-113 8-229-14-341-38-153 3-318-58-467-9-1-28-2-37-3zm-1500 685c8 311-22 624 31 932 2 199 56 392 52 592 105-135 150-302 227-451 62-135 129-269 197-401 26-61 67-123 57-192-75-122-209-186-312-279-80-71-170-131-252-201zm814 191c45-50 47-115 41-177-31 53-42 115-41 177zm123-148c-18 56-26 131 3 185 54-26 35-152-3-185zm-121 204c11 39 23 78 34 116 21 0 62-1 83-1-14-36-30-71-45-106-18-3-54-6-72-9zm423 378c-43 220 22 447 79 660 44 154 75 314 153 456 45-289 105-578 115-871 32-154 29-313 22-470-125 65-297 94-369 225zm-541 67c-186 248-273 547-401 824-52 129-141 262-101 407 42 182 122 353 185 529 163-413 175-867 348-1276 62-151 133-317 79-481-37-1-73-2-110-3zm318 346c-2 127-15 256 7 382 55 343 88 693 193 1025 48-136 154-264 149-413-123-320-229-647-297-984-13-2-39-7-52-10zm-480 1618c59 47 118 100 193 123 89 20 179-4 260-42-16-228-101-446-109-675-42-220-14-447-96-660-133 406-200 831-248 1254zm2716-1200c55 144 124 287 235 398 90-37 187-39 282-38 59 55 117 110 176 166 101-3 202-5 298-41-88-167-166-342-182-532-152 3-304 3-456 4-120-4-234 41-353 43zm-718-1268c57 102 96 218 167 311 537 78 1079 116 1615 203 56-172 65-356 30-532-192 2-380-41-570-56-351-40-707-115-1011-300-76 125-150 251-231 374zm1096-780c46 129 98 257 156 381 166 19 333 30 496 65-2-134-9-268-5-403-214-30-430-53-647-43zm-3381-3903c194 3 388 9 578 56 259 48 441 273 546 500 208 419 367 859 549 1290 264 662 536 1322 802 1984 50 133 189 191 306 254 141 67 291 128 449 143-93-264-211-519-305-782-91-202-134-421-208-629-136-456-312-901-411-1368-13-193-28-391-106-571-91-204-172-413-242-626-72-165-189-311-335-417-84-45-183-63-278-73-251-10-503-19-754 0-213 30-417 116-591 239zm2551 1248c77 562 312 1084 464 1627 54 152 85 312 154 459 100 179 335 153 509 196 168-3 333 50 501 33 68-376 64-761 17-1138 10-291-72-577-31-867 23-94 59-183 96-272-165-1-331 2-494-26-405-11-811-11-1216-12zm-766-4457c-281 110-589 102-883 151-211-2-417 47-627 54-176 3-352 62-527 24-165-41-290-189-303-357-70 122-57 265-90 397-29 219-79 437-103 657 327-24 654-53 982-60 252-48 511-3 763-55 179-19 361 6 539-24 147-22 297-14 445-36 51-186 19-381 64-568 2-162 29-320 43-480-102 97-162 245-303 297zm839-2774c-61 321-72 649-118 973-81 849-182 1694-244 2544 228-26 458-22 688-37 207-43 420-13 629-35 187-39 378-23 567-32 316-43 637-38 954-62 49-221 9-451 57-672 15-122 9-244 8-366-61 68-109 153-191 199-74 30-154 46-232 57-287 16-577-7-863 36-181 12-363-2-545 12-173 28-354 45-528 13-171-37-267-213-272-376-7-387 13-774 46-1159 5-174-8-351 26-524 32-181-13-367 26-548 27-121 13-246 6-369-17 115-10 231-14 346zm3007-23c-41 164-3 335-43 499-24 121-10 246-21 369-43 239-26 485-66 725-30 156-1 315-33 470-38 167-2 340-37 508-24 139-17 280-24 420-14 121-26 243-30 365 109-3 220 1 329-21 206-38 418 6 624-37 244-29 491-9 735-42 210-33 424-13 634-35 149-78 297-163 464-193 202-54 411-4 602 65 188 91 400 26 598 19 41-72 90-139 121-214 11-124-33-245-42-369-44-200-53-406-101-605-60 201-176 399-382 479-270 101-565 117-852 109-459 43-922 30-1383 21-280-49-581 27-842-108-188-105-270-319-272-524 1-178-9-356 19-531 25-261 6-524 29-784 26-360 57-720 29-1080-73 156-21 331-56 494zm1218 3477c-189-13-375 37-564 37-308-5-613 50-921 49-3 91-5 184-18 274-41 211-3 428-36 641-26 145-20 294-18 441 77 0 154 0 231-2 4-86 9-173 17-259 124-108 293-108 446-86 125 49 137 199 165 311 264 6 529-1 793 0 120-3 243 11 358-27 16-323-76-647-5-968 13-158 77-306 152-445-202-12-398 49-600 34zm-3064 183c-244 17-488 14-730 41-269 40-544-1-811 60-54 198-10 408-61 607-3 205-23 407-41 611 43-3 86-5 129-8 17-58 22-127 78-164 63-73 170-39 255-47 126-17 185 116 229 210 280-10 560 12 840-14 272-9 545-7 818-20 173-20 347-12 521-17 62-283 3-577 52-862 19-153 13-308 18-462-197 8-395-5-592 16-232 49-472 2-705 49zm-2536 138c-354 54-714 32-1068 80-172 9-347-8-518 27-167 21-337 11-506 14-49 362-6 728-8 1092 732-3 1464-4 2197-8 174-25 349-10 523-30-1-9 23-25 27-14-6-167-14-336 21-500 23-135 1-275 28-410 17-96 20-194 20-292-238 27-476 46-716 41zm-1760 1701c-103 1-205 1-308 2 5 262 1 524 8 786 99-96 219-164 345-219 107-92 205-196 330-266 247-143 520-279 812-273l1-47c-396 11-793-16-1188 17zm4403-80c-328 42-660 21-990 27-34 102-52 223-159 277-82 12-166 11-248-1-104-58-148-171-195-273-53 0-106-1-158-2-8 148-12 297 6 445 44 269 143 524 248 774 46 102 73 215 143 304 399 9 798 0 1197 15 250 37 504 26 756 25 152-114 261-272 408-391 43-47 118-85 111-157-4-352-9-703-5-1054-371 0-742 3-1114 11zm1398-27c-6 296-9 593 3 889 193-199 381-403 563-612-57-27-120-45-169-84-48-56-73-126-98-195-100-3-199 1-299 2zm14147 5249c-290 0-593 25-885 24-462 3-925 2-1388 4-66 95-28 225-45 334 60 49 119 99 189 134 130 71 283 61 424 86 704 8 1407 6 2111 9 66-1 134 3 200-9 103-61 185-150 281-219 138-118 298-215 401-367-527-14-761 2-1288 4zm59-700c-770 7-1541 1-2311 11-8 156-21 311-34 468 488 2 976-8 1464-13 230-28 461-16 692-20 474-4 949 6 1423-9 5-155 2-311 5-466-413 9-828-10-1239 29zm-1699-640c-191 28-393-13-577 60-6 113-7 227-8 340 563 3 1126-5 1688-9 94 2 186-23 281-22 518-4 1037-6 1556-5 29-121 31-245 28-369-989-1-1979 3-2968 5zm6653-4504c1 187-2 374 4 562 136-128 302-231 491-259 237-54 482 33 676 167 5-161 3-323 1-485-391 2-782 6-1172 15zm1348 1221v-5c-7-97-28-191-71-281-35-69-80-135-132-193l-4-4-4-4c-132-147-312-238-511-238-402 0-728 370-728 827s326 827 728 827 728-370 728-827c0-35-2-69-6-102zm-4734-608c-58 474-101 952-95 1430 6 108 8 223 58 322 73 112 220 138 344 138 0-818 2-1636-11-2454-244 75-248 359-296 564zm520-580c-4 832-2 1664 1 2496 116 25 234 36 353 37 0-846-2-1692-10-2538-114-1-229 3-344 5zm565-13c-3 853 1 1705 2 2559 119 7 239 10 358 12-3-858 1-1715-6-2572-118-1-236-1-354 1zm568-2c-3 789 6 1578 7 2367-1 77 2 155 20 231 121 0 243 1 365 2 25-291 6-584 12-876-26-575-7-1151-20-1726-128-5-257-3-384 2zm605 2605c115-1 251-6 366-5 1-868-4-1736-1-2604-122-13-245-16-367-6 0 858-14 1757 2 2615zm564-2610c4 363 2 725 4 1088 38 504 16 1010 27 1516 105-1 211-3 317-2 39-231 11-467 20-701 12-132-48-253-80-378-28-222-21-451 59-662 17-286-6-574 3-861-116-21-235-17-350 0zm1979-47c-4 253-6 507 2 760 90 186 171 386 161 596 2 192-81 371-158 542-11 224 1 447-6 671 117 0 234 1 350-8-6-854 3-1709-27-2562-107 0-215 0-322 1zm542 19c9 278-11 558 21 835 7 568 0 1136 7 1704 107-1 213-16 320-29 1-843-1-1686-3-2528-115-3-232-13-345 18zm557-20c0 842 9 1684 12 2526 112 5 225 0 338-2 4-841 3-1682-9-2523-114-1-227-2-341-1zm561-2c1 832 1 1663 3 2495 118 2 237 1 355-2 7-830-1-1660 1-2490-120-3-239-3-359-3zm568 3c2 814 5 1629 9 2443 114 25 229-4 342-20 11-741-3-1483-3-2225 3-68-8-136-24-202-108 3-216 1-324 4zm569-11c-12 383 0 765-4 1148 4 415-8 831 10 1246 141-40 284-118 341-260 74-249 54-512 55-768-20-384-55-769-146-1144-15-53-28-110-62-154-62-30-129-46-194-68zm-6138 3946 6460-131c98-2 167 76 165 174l-3 110c189 10 382-13 568 38-11-109-39-223-119-302-99-91-213-165-312-257-80-88-214-40-318-42-160 128-367 137-563 132l-6675 158c64 62 146 113 182 197 40 80 27 172 36 259 99-57 207-106 326-95l58-1 3-59c6-97 94-179 192-181zm6613 444-26 931c-2 98-93 180-191 181l-6496 132c-98 1-170-76-165-174l53-968h-38l-111 26-94 1346c10 11 30 34 39 45 1262 41 2541-27 3805-31 1090-69 2260-5 3334-118l48-1364-158-6zm502-2301c195 66 401 53 603 43-76-28-156-49-229-84-136-55-233-170-341-264-35 99-37 202-33 305zm-5183 27c-5 172 0 344-1 516 398-6 798 6 1195-35 1-148 0-296 1-444-228 184-541 248-822 167-139-39-252-132-373-204zm6429 229c-420 11-845 35-1261-37-11 165-44 329-46 495-24 128-40 256-42 386 250 2 498-32 748-30 415-30 832-13 1248-30-5-143 3-288-15-431-39-182-24-370-31-554-185 103-384 196-601 201zm-1808 295c-140 93-307 130-470 162-286 60-579 60-869 91-230 28-466-1-695 41-258 25-520-10-776 35-201 19-403 6-604 16-219 31-441 25-662 38-1047 26-2096 49-3141-19-179-35-364-8-541-55-215-29-421-110-584-255 9 200-24 397-33 597 184 4 369-2 551 29 119 22 224 96 347 99 514 41 1030 23 1545 21 388 4 776-25 1164-17 556-8 1113 11 1668-36 366-5 732 3 1098-11 287-46 579-16 869-34 313-54 650 5 945-134 107-27 220-12 330-17 28-244 92-486 81-734-81 54-142 130-223 183zm2232 821c-461 26-927-21-1383 56 116 102 274 132 405 211 86 72 108 188 107 295 185-59 382-34 571-69 414-14 828-1 1242-14-69-77-159-129-236-197-97-77-240-79-318-180-35-38-62-84-105-112-95-6-189 1-283 10zm-48 791c-212 8-423 15-636 15-54 115-75 241-72 368 352-4 704 0 1055-10 213-33 429-22 645-30-19-119 49-274-46-364-315 1-633-19-946 21zm31 576c-245-10-489 20-735 24-4 127-4 254-5 381 299-9 600 13 897-32 256-4 513-10 769-5 40-117 36-242 31-364-37-62-112-36-171-37-260 37-523 26-786 33zm-739 612c-13 69-30 138-29 209-22 191 148 319 252 457 195-5 387-39 582-38 248-56 527-4 753-137 72-169 109-357 106-541-555 7-1109 55-1664 50zm-528-7004c181 21 359 58 540 78-17 5-34 10-50 16 269 2 544-20 810 26-146-134-239-325-417-423-234-1-465-37-698-28-81 99-142 212-185 331zm150 1708c-228 79-402 279-466 508-11 155 4 311-27 464-54 289 166 538 377 708 224 136 543 107 728-82 418-388 403-1155-57-1503-155-125-368-131-555-95zm-11863-42c-172 55-344 148-437 308-215 283-275 673-168 1011 62 234 213 453 432 568 148 93 330 92 498 71 233-49 425-220 532-428 146-263 158-581 94-869-74-297-298-567-598-658-116-19-237-17-353-3zm-1290-1900c98 111 183 233 259 359 48 80 73 174 136 245 110 12 225 5 331 45-75-85-155-180-161-297 17-97 83-176 124-263-230-24-462-42-689-89zm-3170-584c1338 162 2674 323 4012 483 14-109-33-247 57-333 59-71 163-37 244-47-4-49-9-97-13-146-748-14-1495-12-2242-12-342 4-686-12-1026 32-343 21-690-18-1032 23zm4528-23c3 41 6 82 9 122 95 4 191-5 285 15 99 86 65 219 92 332 53 80 116 189 228 183 137 0 269 38 405 43 666 105 1344 61 2015 71 1437 15 2873 21 4309 27 407 22 816 28 1222 8-393-116-799-172-1199-257-280-45-560-107-817-227-70-32-134-91-215-89-297 2-594-22-891-38-180-39-366-18-548-31-407-63-822-13-1232-38-276-40-558-15-834-59-192-35-389-6-581-36-145-30-294-16-440-20-603 0-1206-4-1808-6zm-8937-3316c94 729 220 1453 327 2180 68 531 160 1059 221 1591 121-49 191-164 290-243 167-126 321-269 502-376 204-103 439-70 660-76 482 6 965-10 1447 19 751 13 1503 36 2253-9 1004-33 2011 11 3015-16-42-25-84-60-137-55-734-9-1468-13-2202-14-504-23-1009-26-1514-32-523-25-1049-6-1573-31-366-43-735 1-1102-35-166-34-336-13-503-29-176-33-358-29-530-80-323-70-602-308-721-614-85-191-98-402-131-605-86-606-228-1203-316-1807-23 77-9 156 14 232zm6546 3887c-148 90-147 281-198 427 439 87 891 74 1335 42-133-183-219-449-469-501-223-12-448-2-668 32zm-5229-480c-188 151-390 288-552 469 151 3 297 47 449 45 147 4 292 37 439 45 188 2 371 49 559 45 171 42 348 24 520 58 404 29 805 79 1208 105 173 39 351 16 523 53 174 32 353 13 526 50 119 20 243 0 361 29 117 28 238 9 355 30 144 26 291 27 437 26 70-193 130-392 230-573-1199-158-2406-269-3596-497-363-16-728-6-1092-7-132-3-264 40-367 122zm8351 788c1 95-11 190-51 277-45 76-123 122-196 167 215-1 429 8 643 4 36-138 93-269 174-387-191-13-379-54-570-61zm609 465c610 13 1221 10 1832 14 205 21 411 13 618 15 1667 3 3334 1 5001 0 525-5 1049 11 1573-6-188-120-404-184-611-265-139-38-276-104-424-94-567 2-1135-3-1703-10-208-32-419-15-628-20-1782-5-3564 0-5346-8-184 22-271 215-312 374zM8664 2173c-17 169-46 337-39 508 12-211 122-401 267-550-73 29-151 36-228 42zm-575 152c115 52 199 147 278 241 7-107 6-213 4-320-95 24-190 46-282 79zm-2426 488c-15 59-28 117-39 177 40-61 84-120 129-177h-90zm-509 101c95 84 162 192 161 321 23-119 52-236 69-356-78 8-154 21-230 35zm-2183 255c-3 41-7 83-10 124 86-41 171-86 260-122-83 1-167-2-250-2zm8116-1498c115 62 224 134 319 223-6-92-31-182-53-271-89 14-178 30-266 48zm781-12c25 256 87 506 113 762 46-140 35-294 103-427 53-121 150-215 227-321-148-9-295-13-443-14zm14691 5370c-207 79-433 16-645 60-430 17-861 5-1291 4-250-31-503-18-754-22-911-2-1822-8-2732-2 7 13 23 40 30 53 491 12 983 9 1475 18 331 33 665-9 996 32 154 34 313 5 468 30 211 48 430 7 643 45 530 27 1064-1 1592 63 119 7 239-3 358 13 201 42 408 24 611 27-163-163-297-357-395-565-107 95-213 204-356 244zM14443 8437c44 53 94 105 117 172 99 275 151 563 198 850-11 94-75 185-167 219-131 49-274 45-412 38-299-37-602-18-900-59-25 51-50 102-75 154 315-3 630 0 944-5 157-15 315-6 472 1 787 3 1573 7 2359 22 167 19 334 14 502 15 368-3 737 3 1105 10 65-1 128 15 189 38 97 91 43 235 50 352-27 26-55 52-82 79-420 2-840-4-1260-3-216 2-433-16-649 7 142 44 291 62 425 126 361 155 558 522 723 855 50 20 106 11 159 13 298-4 596 5 893-5-2-619 3-1238-1-1857 6-206-39-409-26-615-206-5-407-55-612-52-128 3-251-46-379-37-106 8-208-24-312-32-259-1-513-53-772-62-173-41-353-12-525-54-542-37-1082-103-1623-145-112-28-228-24-341-25zm4965 440c6 944-3 1888 7 2833-4 155 39 306 38 462 38 160 45 350 181 464 95 97 235 120 365 135 179 14 355 57 536 45 232-12 459 38 691 31 654 5 1309 6 1963 2 17-257 25-515 26-772-106 91-222 176-362 206-337 77-686 55-1029 85-368 18-735-7-1101-39-227-22-469-138-556-361-119-287-117-605-124-910-56-384-16-772 16-1156 27-161 117-332 284-385 347-123 722-102 1085-131 248-5 494-41 742-29 239 6 486-29 717 49 116 47 204 139 285 231-99-268-361-421-596-558-230-19-462 5-690-32-216-25-437 11-651-35-157-22-317 0-473-26-263-36-530-30-792-70-189 13-373-43-562-39zm3743 202c115 124 263 234 300 408 59 155 25 329 97 478 89-174 191-366 382-448 276-129 588-59 883-79 502-39 1006-26 1509-34 325-9 650 10 975-12 681-9 1363-1 2044-34 672-1 1344-4 2017 1 183 26 393 25 538 159 186 151 218 403 263 622 35 114 32 234 47 351 20-431 52-878-80-1295-119-34-233-91-358-90-1868-2-3735-9-5603-13-273-2-546 6-818-17-732 3-1464-9-2196 3zm9311 138c2 113 13 226 51 333 80-49 163-103 260-112 258-57 524-30 785-35 196-7 386 53 581 49-29-102-140-97-224-116-127-31-260-5-387-35-142-32-289-9-431-35-210-33-424-32-635-49zm827 425c142 39 285 90 398 187 453 365 558 1063 262 1554-134 253-378 437-658 497 264 12 562 40 793-115 123-159 113-373 149-561 11-160 2-320-10-479-51-341 26-692-59-1029-138-28-276-64-418-67-150-11-322-73-457 13zm-11503 32c106 108 240 186 325 313 273 354 334 837 214 1260-105 359-378 659-719 816 289-9 577-16 866-25 163-30 360-10 485-138 122-209 76-461 85-691 11-283-49-561-40-845-40-194-28-403-114-586-49-109-180-107-282-116-273-10-547 3-820 12zm10853 29c-6 49-11 99-17 148 114-94 248-156 384-211-128-27-253 8-367 63zm-12233 128c-53 104-76 222-69 338 97-179 236-341 407-453-106 58-245 33-338 115zm-2295 1742c45 150 115 291 167 439 142 360 261 728 396 1090 290-55 586-30 878-47-128-99-272-192-341-343-113-213-127-457-165-690-9-149 1-298-11-447-308-4-616-2-924-2zm2263 8c25 122 40 253 118 355 127 97 294 104 447 109-240-82-407-276-565-464zm10445 3413 135-3 141-389-135 3-141 389zm-469-377-110 2-84 232c-1 3-3 9-9 10-5 0-7-6-9-10l-79-197c-14-33-54-34-76-34-48 1-94 20-113 71l-89 247-4231 86-29 77 4232-86 110-2 84-231c4-11 10-11 12-11 4 0 6 6 8 9l79 196c14 34 46 37 78 36 85-2 104-57 109-71l117-324zm-29 387 290-6c83-2 114-32 138-98 5-14 10-32 11-44 6-44-15-68-65-82l-117-32c-10-3-30-4-28-18 2-15 24-15 34-16l213-4 35-97-277 6c-77 2-111 32-132 93-5 13-9 31-11 43-5 41 8 70 49 83l135 39c12 3 22 6 21 16-2 13-19 15-29 15l-232 5-35 97zm961-20-102-161c-7-11-9-17-8-24 2-14 11-23 24-34l204-169-160 3-165 143c-23 21-30 45-33 66-1 11 0 22 5 32l78 147 157-3zm-5665-74 20-56c1-2 4-4 6-4l90-2c27 0 44-5 56-15 12-11 20-27 27-50 2-4 3-9 4-14 1-4 2-9 3-13 2-14 0-26-7-33-7-8-19-12-37-12l-120 2c-10 1-19 3-25 8-7 5-13 12-16 22l-62 168 61-1zm39-108 12-31c2-5 5-10 9-13s9-4 15-4l37-1c9 0 16 0 21 3s8 8 7 16c0 1-1 4-2 6 0 2-1 4-2 6-4 10-9 16-16 19-7 4-15 5-25 5l-51 1c-3 0-6-2-5-5v-2zm214-43-11 30 81-2c7 0 12 2 15 4 4 3 5 7 5 13-1 1-1 3-2 5l-1 3c0 2-3 4-6 4l-77 1c-16 1-27 3-34 9-7 5-12 14-17 28-1 3-2 6-3 10-1 3-2 7-2 9-1 11 0 19 5 25 5 5 12 8 23 7l98-2c12 0 20-3 27-7 6-5 11-12 14-22l26-71c1-2 1-3 2-5 0-2 1-4 1-6 1-11-1-20-8-26-6-6-17-9-31-9l-105 2zm74 90-4 11c-2 5-5 9-9 12s-8 4-14 4l-32 1c-5 0-8-2-10-4-3-3-4-6-3-10v-3c1-1 1-2 1-3h1c1-5 4-8 8-10 4-3 9-4 13-4l44-1c4 0 6 2 5 5v2zm76 53 51-1 53-147-51 1-53 147zm114-174 9-24-51 1-9 24 51-1zm-18 172 51-1 36-100c2-5 5-9 9-12s8-4 14-4h8c11-1 19 1 25 4 6 4 8 10 7 19-1 2-1 4-2 7 0 2-1 5-2 8l-28 77 51-2 34-93c1-2 1-5 2-7s1-5 1-7c2-12-1-22-9-28-7-7-19-10-35-10l-78 2c-10 0-18 2-25 6-7 5-12 12-16 23l-43 118zm323-7 12-31h-3c-12 1-21-2-26-5-6-5-9-12-7-20 0-4 2-13 4-19l13-35c1-3 3-4 6-4l44-1 11-31h-41c-3 0-6-2-5-5v-1l16-44-51 1-17 46c-1 3-3 5-6 5h-19l-12 31h17c3 0 6 2 5 5v1l-22 62h-1c0 2-1 3-1 5s-1 5-1 7c-2 11 2 19 8 25 8 6 20 9 34 9l42-1zm41 0 51-2 71-197-51 1-71 198zm258-6 11-30-75 2c-10 0-18-1-23-3-6-3-9-8-8-15 1-2 1-5 3-7 0-3 3-4 6-4l92-2c9-1 16-3 21-7 5-5 9-11 12-19 2-4 3-8 4-12 1-5 2-9 3-13 2-16-3-25-13-30-12-6-31-7-56-7-36 1-59 3-75 12-17 10-28 27-40 60-3 7-5 14-6 19-2 6-3 11-3 16-2 16 0 26 8 33s21 10 40 9l99-2zm-79-90c4-11 9-18 16-22 8-4 16-5 26-5 5 0 12 0 18 2 7 1 12 5 11 13 0 1 0 4-1 6s-2 5-5 7c-3 3-8 4-14 4l-47 1c-3 0-5-2-5-5l1-1zm122 89 111-2c15 0 26-2 34-8 8-5 14-14 19-27 1-2 1-4 2-6s1-4 1-5c1-11-1-17-6-22-6-6-15-10-26-14l-35-13c-2-1-4-1-6-2-7-2-11-3-10-10 1-5 5-7 10-8 3-1 6-1 8-1l87-1 11-30-109 2c-14 0-26 3-34 8-9 6-15 15-20 29 0 2-1 4-2 6 0 1 0 3-1 5-1 9 1 15 5 20 5 5 12 8 22 12l30 10c1 1 2 1 3 1 8 3 19 6 18 14-1 3-3 6-5 7-3 1-6 2-8 2l-88 2-11 31zm185-3 111-3c15 0 26-2 34-7 9-6 15-14 20-28 0-2 1-4 1-6 1-2 1-3 2-5 1-10-1-17-7-22-5-6-14-10-25-14l-35-12-1-1c-2 0-4-1-5-1-8-3-12-4-11-11 1-5 6-7 11-8h7l87-2 11-30-108 2c-15 0-26 3-35 9-8 5-14 14-19 28-1 2-2 4-2 6-1 2-1 4-1 5-1 9 0 15 5 20 4 5 12 9 22 12l29 10v1c1 0 2 0 4 1 8 2 18 5 17 13 0 4-2 6-5 7-2 2-5 2-8 2l-87 2-12 32zm461-10c38 0 65-6 83-20 19-14 31-37 42-72l6-21c1-7 2-13 3-19 3-22 0-38-11-49-10-11-28-16-55-16l-87 2c-11 0-20 3-26 8-7 5-12 12-15 21l-52 142v1c0 1 0 2-1 3v3c-1 6 0 11 4 14 3 4 8 5 16 5l93-2zm-11-136c3-6 6-11 10-14 5-3 10-5 17-5h4c17 0 30 1 39 6s13 13 11 27c-1 3-2 8-3 12-1 5-3 11-4 15h-1c-8 24-17 37-30 45-12 8-28 9-52 10h-3c-6 0-10-1-13-3s-4-6-4-11c1-2 1-4 2-7l27-74v-1zm309 130 11-30-75 2c-10 0-18-1-23-3-6-3-9-8-8-15 0-2 1-5 2-7 1-3 4-4 6-4l93-2c9-1 16-3 21-7 5-5 9-11 12-20 1-3 3-7 4-11 1-5 2-9 2-13 2-16-2-25-13-30-11-6-30-7-56-7-35 1-58 3-75 12-16 10-27 27-39 60-3 7-5 14-6 19-2 6-3 11-3 16-3 16 0 26 8 33 7 7 21 10 40 9l99-2zm-79-90c4-12 9-18 16-22s16-5 26-5c5 0 12 0 17 2 8 1 13 5 12 13 0 1 0 4-1 6s-2 5-6 7c-3 3-7 4-14 4l-46 1c-3 0-5-2-5-5 0 0 0-1 1-1zm126 89 51-1 36-99c2-6 5-10 9-13 4-2 8-4 14-4h8c11 0 19 1 25 4 6 4 8 10 7 19-1 2-1 5-2 7 0 3-1 5-2 8l-28 77 51-1 34-94c1-2 1-4 2-7 1-2 1-5 1-7 2-12-1-22-9-28-7-7-19-10-35-10l-78 2c-10 0-18 2-25 7-7 4-12 11-16 22l-43 118zm323-6 12-31h-3c-12 0-21-2-26-6-6-5-9-12-7-20 0-4 2-13 4-18l13-36c1-2 3-4 6-4l44-1 11-31-41 1c-3 0-6-2-5-5v-2l16-43-51 1-17 46c-1 2-3 4-6 4h-19l-12 32 17-1c3 0 6 2 5 5v2l-22 62h-1c0 1-1 3-1 5s-1 4-1 6c-2 11 2 20 8 25 8 7 20 10 34 10l42-1zm187-4 61-1 50-139c2-6 5-10 10-13 4-3 9-5 15-5l41-1c9 0 15 1 19 4 5 3 7 7 6 14 0 2 0 4-1 5 0 2-1 4-2 6-3 10-8 17-14 21-7 5-15 7-26 7h-11c-8 0-16 2-22 5-5 3-10 8-12 15-1 1-2 3-2 5-1 1-1 3-1 4-1 7 1 10 4 16l2 3v1l28 50 67-1-33-53c-1-1-1-3 0-4v-1c1-3 4-4 6-5h7c23 0 38-9 48-21 10-13 16-29 21-43 2-5 3-9 4-13s1-8 2-12c2-15 0-26-8-34-7-7-19-11-37-10l-120 2c-9 0-18 3-25 8s-12 12-15 21l-62 169zm420-9 10-29-75 1c-10 0-17-1-22-3-7-3-9-8-8-15 0-2 1-4 2-7s3-4 6-4l92-2c10 0 16-3 21-7 6-5 9-11 13-19l3-12c2-5 2-9 3-13 2-16-2-25-13-30-12-6-31-7-56-7-36 1-59 3-75 12-16 10-27 27-39 60-3 7-5 14-7 20-1 5-2 10-3 16-2 15 1 26 8 32 8 7 21 10 40 9l100-2zm-80-90c4-11 10-18 17-22s15-4 26-5c4 0 11 0 17 2 7 2 13 5 12 13 0 1-1 4-2 6s-2 5-5 7c-3 3-7 4-14 4l-46 1c-3 0-6-2-5-5v-1zm210-58c-11 0-20 3-26 8-7 5-11 12-15 21l-61 169 51-1 17-46c1-3 3-5 6-5l47-1c29 0 48-6 62-18 14-11 23-29 30-51 2-5 3-9 4-14l3-12c2-16-1-30-10-39-7-8-20-13-40-12l-68 1zm3 50c2-7 5-12 9-15 5-3 10-5 18-5h11c10 0 16 3 20 7 3 4 4 10 3 17 0 3-1 7-2 11-1 3-2 7-3 11-3 8-8 17-15 25s-17 13-30 14h-29c-3 0-5-2-4-5v-1l22-59zm183-54-11 30 81-1c7-1 12 1 15 3 4 3 5 7 5 13-1 1-1 3-2 5l-1 3c0 2-3 4-6 4l-77 2c-16 0-27 2-34 8-7 5-12 14-17 28-1 3-2 6-3 10-1 3-2 7-2 9-1 11 0 19 5 25 5 5 12 8 23 7l98-2c12 0 20-2 27-7 6-5 11-12 14-22l26-71c1-2 1-3 2-5 0-2 1-4 1-6 1-11-1-20-8-26-6-6-17-9-31-9l-105 2zm74 90-4 11c-3 6-5 9-9 12s-8 4-14 4l-32 1c-5 0-8-2-10-4-3-2-4-6-3-10v-3c1-1 1-2 1-3h1c1-5 4-8 8-10 4-3 9-4 13-4l44-1c4 0 6 3 5 5v2zm76 53 51-1 53-147-51 1-53 147zm114-174 9-24-52 1-8 24 51-1zm-18 172 51-1 26-71c5-14 12-25 21-33 10-8 22-13 38-13l19-1 11-30-34 1c-28 0-49 3-65 13-15 9-27 24-36 49l-31 86zm-3105-935c-185-6-409 40-623 206l152 66c123-137 289-234 473-272h-2zm1137 20c-8 8-11 19-15 29-33 92-68 183-101 275-18 49-35 98-54 147-19 52-39 105-57 157 58 0 117-2 176-3 9 0 17-4 24-10 7-5 10-13 12-21 50-138 100-277 151-415 2-6 4-13 9-19 7-9 20-13 32-13 43-1 87-2 131-3 13 0 26 5 31 16 6 11 2 25-1 37-5 18-12 36-25 50-14 15-35 21-55 22-21 1-43 1-64 1-11 1-21 7-27 15-5 5-7 13-10 19-8 20-15 41-22 61-5 15-12 31-12 47 1 5 4 10 6 15 28 58 57 117 85 175 5 11 17 18 30 17 61-1 121-2 181-4-34-70-70-141-104-212 56-8 110-38 145-81 23-28 39-61 51-93 11-36 21-74 18-111-3-32-20-62-45-83-26-21-59-33-95-34-122 3-244 5-367 8-10-1-21 3-28 11zm-754 8c-11 5-19 14-22 25-46 127-93 254-138 381-25 70-51 140-76 210 124-2 248-5 373-7 27-2 53-4 80-10 97-18 189-71 254-143 47-51 80-112 96-176 10-41 13-84 5-124-4-29-14-57-32-80-16-22-38-40-63-54-33-17-70-26-109-30-31-3-63-1-94-1l-135 3c-35 1-71 1-106 2-11 1-23-1-33 4zm139 143c7-6 17-8 26-8 35-1 69-1 103-2 15 0 30-2 44 1 26 5 50 20 60 43 11 23 10 49 5 75-7 34-22 69-48 98-22 26-51 48-83 64-31 14-65 22-98 23-40 1-80 1-120 2 5-16 12-32 17-49 25-70 51-140 76-211 5-12 7-26 18-36zm-453-139c-185 36-351 133-473 272-43 116-85 232-128 348 0 2-2 5-1 7 59-2 117-3 176-4 15-1 30-11 34-25 52-143 103-287 156-430 5-14 21-23 36-23l129-3c9-1 18 1 25 5 10 6 15 18 13 29-2 15-7 31-14 46-5 11-13 22-24 30-13 9-29 14-44 14-22 1-44 1-67 2-15 1-28 13-33 26l-27 75c-5 13-11 27-15 40 4 1 7 1 11 1 44-1 88-2 133-3 26-2 52-4 78-10 41-10 81-31 111-61 29-29 48-64 60-99 5-16 11-32 15-48 8-26 11-53 8-79-4-29-20-54-41-74-17-16-40-27-64-33-18-3-35-6-54-3zm4745-87c-8 8-11 19-15 29-33 92-68 183-101 275-18 49-35 98-54 147-19 53-39 105-57 158 58-1 117-3 176-4 9 0 17-4 24-9 7-6 10-14 12-22 50-138 100-277 151-415 2-6 4-13 9-18 7-10 20-14 32-14 43-1 87-2 131-3 13 0 26 5 31 16 6 11 2 25-1 37-5 18-12 36-25 51-14 14-35 20-55 21-21 1-43 1-64 2-11 0-21 6-27 14-5 6-7 13-10 20-8 20-15 40-22 60-5 16-12 31-12 47 1 6 4 10 6 15 28 59 57 117 85 176 5 11 17 17 30 16 61-1 121-2 181-3-34-71-70-141-104-212 56-9 110-39 146-82 22-28 38-60 50-93 11-36 21-74 18-110-3-33-20-63-45-84-26-21-59-33-95-33-122 2-244 4-367 7-10 0-21 4-28 11zm-2918 676c17-1 35-2 52-3 17 0 34-2 50-4 15-1 31-3 45-6 14-2 27-4 39-7 6-1 10-5 11-11l25-116c1-6-2-8-8-7-26 3-52 6-77 8-26 2-52 3-77 4-24 0-44-2-60-6-17-5-29-13-37-24-7-11-11-25-10-44 0-18 6-41 16-68l26-73c10-27 21-50 34-68 13-19 28-34 44-45 17-12 35-20 55-25s41-8 65-9c24 0 48 0 71 1 24 2 47 4 69 9 6 1 10-1 13-6l64-116c1-3 1-5 1-7-1-1-2-2-5-4-10-3-21-6-33-8-12-3-26-5-40-6-15-2-30-3-46-4s-32-1-49 0c-47 1-92 6-133 16-41 11-78 27-112 50-35 24-66 54-93 91-27 38-51 84-71 138l-24 65c-20 55-31 101-31 138s9 67 27 89c17 22 43 37 77 46s75 13 122 12zm300-19 430-9c6 0 10-3 12-9l45-121c2-5 0-8-6-8l-275 6 38-105 208-4c6-1 10-3 12-9l45-121c2-5 0-8-6-8l-208 4 38-101 275-6c6 0 10-3 12-8l45-121c2-6 0-9-6-8l-431 8c-6 0-11 3-13 9l-221 602c-2 6 0 9 6 9zm563-12 145-3c7 0 11-3 13-8l132-355v12c0 7 2 17 5 30l82 309c1 5 5 7 11 7l161-3c6 0 10-3 12-9l223-602c2-6 0-8-6-8l-146 3c-6 0-10 3-13 8l-130 354c-1 0-1-1-1-3s0-5-1-9c0-3-1-8-2-12 0-5-1-10-3-15l-82-311c-1-5-5-8-11-7l-161 3c-7 0-11 3-13 8l-221 603c-2 5 0 8 6 8zm836-17 145-3c7 0 11-3 13-8l175-474 174-3c6 0 10-3 13-9l44-121c2-5 0-8-6-8l-514 11c-6 0-10 2-12 8l-45 121c-2 6 0 8 6 8l175-3-174 473c-2 5 0 8 6 8zm437-9 430-8c6-1 10-3 12-9l45-121c2-6 0-8-6-8l-275 5 38-105 208-4c6 0 10-3 12-8l45-121c2-6 0-8-6-8l-208 4 38-101 275-6c6 0 10-3 12-9l45-121c2-5 0-8-6-8l-431 9c-6 0-11 3-13 8l-221 603c-2 6 0 8 6 8z"/></g></g></svg>